<?xml version="1.0" encoding="UTF-8" standalone="no"?>
<!DOCTYPE svg PUBLIC "-//W3C//DTD SVG 1.1//EN" "http://www.w3.org/Graphics/SVG/1.1/DTD/svg11.dtd">
<svg version="1.1" xmlns="http://www.w3.org/2000/svg" xmlns:xlink="http://www.w3.org/1999/xlink" preserveAspectRatio="xMidYMid meet" viewBox="0 0 205 305" width="205" height="305"><defs><path d="M193.69 2.5C198.56 2.5 202.5 6.44 202.5 11.31C202.5 69.55 202.5 235.45 202.5 293.69C202.5 298.56 198.56 302.5 193.69 302.5C155.45 302.5 49.55 302.5 11.31 302.5C6.44 302.5 2.5 298.56 2.5 293.69C2.5 235.45 2.5 69.55 2.5 11.31C2.5 6.44 6.44 2.5 11.31 2.5C49.55 2.5 155.45 2.5 193.69 2.5Z" id="de0ArvhEl"></path><path d="M122.5 46.68C122.5 57.26 113.53 65.86 102.5 65.86C91.46 65.86 82.5 57.26 82.5 46.68C82.5 36.09 91.46 27.5 102.5 27.5C113.53 27.5 122.5 36.09 122.5 46.68Z" id="c1bGlZGnSN"></path><text id="blCmC3C6Q" x="108.31" y="362.62" font-size="23" font-family="Romanesco" font-weight="400" font-style="italic" letter-spacing="0" alignment-baseline="before-edge" transform="matrix(1 0 0 1 -9.866473315154902 -330.6838180616659)" style="line-height:100%" xml:space="preserve" dominant-baseline="text-before-edge"><tspan x="108.31" dy="0em" alignment-baseline="before-edge" dominant-baseline="text-before-edge" text-anchor="start">i</tspan></text><style id="romanesco400italic">
    @font-face {
            font-family: "Romanesco";
            font-weight: 400;
            src: url('https://fonts.googleapis.com/css?family=Romanesco&display=swap');
            }
    </style><path d="M122.5 92.5L22.5 92.5" id="atrh22QSH"></path><path d="M182.5 122.5L22.5 122.5" id="a7x3EBrU5n"></path><path d="M182.5 152.5L22.5 152.5" id="a3O0eMZVb"></path><path d="M182.5 182.5L22.5 182.5" id="dHNcMXQ8F"></path><path d="M182.5 212.5L22.5 212.5" id="e12PcsZy5"></path><path d="M182.5 242.5L22.5 242.5" id="aAC9hDSKY"></path></defs><g><g><g><g><use xlink:href="#de0ArvhEl" opacity="1" fill-opacity="0" stroke="#05386b" stroke-width="5" stroke-opacity="1"></use></g></g><g><g><use xlink:href="#c1bGlZGnSN" opacity="1" fill="#05386b" fill-opacity="1"></use></g><g id="e30evTgD9o"><use xlink:href="#blCmC3C6Q" opacity="1" fill="#ffffff" fill-opacity="1"></use></g></g><g><g><use xlink:href="#atrh22QSH" opacity="1" fill-opacity="0" stroke="#05386b" stroke-width="5" stroke-opacity="1"></use></g></g><g><g><use xlink:href="#a7x3EBrU5n" opacity="1" fill-opacity="0" stroke="#05386b" stroke-width="5" stroke-opacity="1"></use></g></g><g><g><use xlink:href="#a3O0eMZVb" opacity="1" fill-opacity="0" stroke="#05386b" stroke-width="5" stroke-opacity="1"></use></g></g><g><g><use xlink:href="#dHNcMXQ8F" opacity="1" fill-opacity="0" stroke="#05386b" stroke-width="5" stroke-opacity="1"></use></g></g><g><g><use xlink:href="#e12PcsZy5" opacity="1" fill-opacity="0" stroke="#05386b" stroke-width="5" stroke-opacity="1"></use></g></g><g><g><use xlink:href="#aAC9hDSKY" opacity="1" fill-opacity="0" stroke="#05386b" stroke-width="5" stroke-opacity="1"></use></g></g></g></g></svg>