<?xml version="1.0" encoding="UTF-8" standalone="no"?>
<!DOCTYPE svg PUBLIC "-//W3C//DTD SVG 1.1//EN" "http://www.w3.org/Graphics/SVG/1.1/DTD/svg11.dtd">
<svg version="1.1" xmlns="http://www.w3.org/2000/svg" xmlns:xlink="http://www.w3.org/1999/xlink" preserveAspectRatio="xMidYMid meet" viewBox="0 0 640 640" width="640" height="640"><defs><path d="M425.86 600.76L414.78 604.7L403.51 608.2L392.06 611.27L380.43 613.9L368.63 616.07L356.69 617.78L344.59 619L332.36 619.75L320 620L307.64 619.75L295.41 619L283.31 617.78L272.95 616.3L230.75 500.36L310.24 281.97L426.22 600.62L425.86 600.76ZM236.49 608.2L225.22 604.7L214.14 600.76L203.27 596.41L192.62 591.65L182.18 586.49L171.98 580.95L162.02 575.03L152.32 568.74L142.87 562.09L133.7 555.09L124.81 547.75L116.21 540.08L107.91 532.09L99.92 523.79L92.25 515.19L84.91 506.3L77.91 497.13L71.26 487.68L64.97 477.98L59.05 468.02L53.51 457.82L48.35 447.38L43.59 436.73L39.24 425.86L35.3 414.78L31.8 403.51L28.73 392.06L26.1 380.43L23.93 368.63L22.22 356.69L21 344.59L20.25 332.36L20 320L20.25 307.64L21 295.41L22.22 283.31L23.93 271.37L26.1 259.57L28.73 247.94L31.8 236.49L35.3 225.22L39.24 214.14L43.59 203.27L48.35 192.62L53.51 182.18L59.05 171.98L64.97 162.02L71.26 152.32L75.35 146.51L244.14 610.26L236.49 608.2ZM562.09 142.87L568.74 152.32L575.03 162.02L580.95 171.98L586.49 182.18L591.65 192.62L596.41 203.27L600.76 214.14L604.7 225.22L608.2 236.49L611.27 247.94L613.9 259.57L616.07 271.37L617.78 283.31L619 295.41L619.75 307.64L620 320L619.75 332.36L619 344.59L617.78 356.69L616.07 368.63L613.9 380.43L611.27 392.06L608.2 403.51L604.7 414.78L600.76 425.86L596.41 436.73L591.65 447.38L586.49 457.82L580.95 468.02L575.03 477.98L568.74 487.68L562.09 497.13L555.09 506.3L547.75 515.19L540.08 523.79L532.09 532.09L523.79 540.08L515.19 547.75L506.3 555.09L497.13 562.09L487.68 568.74L477.98 575.03L468.02 580.95L457.82 586.49L449.23 590.74L413.74 493.26L547.82 124.89L555.09 133.7L562.09 142.87ZM344.59 21L356.69 22.22L368.63 23.93L376.99 25.47L217.45 463.81L93.54 123.37L99.92 116.21L107.91 107.91L116.21 99.92L124.81 92.25L133.7 84.91L142.87 77.91L152.32 71.26L162.02 64.97L171.98 59.05L182.18 53.51L192.62 48.35L203.27 43.59L214.14 39.24L225.22 35.3L236.49 31.8L247.94 28.73L259.57 26.1L271.37 23.93L283.31 22.22L295.41 21L307.64 20.25L320 20L332.36 20.25L344.59 21ZM414.78 35.3L425.86 39.24L436.73 43.59L447.38 48.35L457.82 53.51L468.02 59.05L477.98 64.97L487.68 71.26L497.13 77.91L506.3 84.91L515.19 92.25L523.79 99.92L528.61 104.56L400.44 456.71L323.54 245.42L401.49 31.26L403.51 31.8L414.78 35.3Z" id="c132uuA0Iy"></path></defs><g><g><g><g><use xlink:href="#c132uuA0Iy" opacity="1" fill-opacity="0" stroke="#05386b" stroke-width="25" stroke-opacity="1"></use></g></g></g></g></svg>